<?xml version="1.0" encoding="utf-8"?>
<!-- Generator: Adobe Illustrator 21.1.0, SVG Export Plug-In . SVG Version: 6.00 Build 0)  -->
<svg version="1.1" id="Capa_1" xmlns="http://www.w3.org/2000/svg" xmlns:xlink="http://www.w3.org/1999/xlink" x="0px" y="0px"
	 viewBox="0 0 30 30" style="enable-background:new 0 0 30 30;" xml:space="preserve">
<g>
	<g>
		<g>
			<g>
				<g>
					<path d="M14.3,18.9v7.6h14.2v-7.6H14.3z M19.5,25.1h-3.1v-0.6L17,24c0.9-0.8,1.4-1.3,1.4-1.9c0-0.4-0.2-0.6-0.7-0.6
						c-0.4,0-0.7,0.2-0.9,0.4l-0.3-0.7c0.4-0.3,0.8-0.5,1.4-0.5c1,0,1.5,0.6,1.5,1.4c0,0.7-0.6,1.3-1.1,1.9L18,24.2l0,0h1.7
						L19.5,25.1L19.5,25.1z M23,24.1h-0.6v1h-0.9v-1h-1.9v-0.6l1.7-2.6h1.2v2.5H23V24.1L23,24.1z M26.2,25.1h-1v-1.8
						c0-0.5-0.2-0.7-0.6-0.7c-0.3,0-0.5,0.2-0.5,0.4c0,0.1,0,0.2,0,0.2v1.9h-1v-4.7h1v1.9l0,0c0.1-0.2,0.3-0.3,0.4-0.4
						c0.2-0.1,0.4-0.1,0.6-0.1c0.6,0,1.1,0.5,1.1,1.4V25.1L26.2,25.1z"/>
				</g>
			</g>
		</g>
		<g>
			<g>
				<g>
					<path d="M21,22.4l-0.6,0.9l0,0h0.9v-0.9c0-0.3,0-0.6,0-0.8l0,0C21.3,21.8,21.2,22.1,21,22.4z"/>
				</g>
			</g>
		</g>
		<g>
			<g>
				<g>
					<path d="M12,21.9v0.9c-4-0.4-7.2-3.5-7.5-7.5h0.9c0.4,0,0.7-0.3,0.7-0.7c0-0.4-0.3-0.7-0.7-0.7H4.5c0.3-4,3.5-7.2,7.5-7.5v0.9
						c0,0.4,0.3,0.7,0.7,0.7c0.4,0,0.7-0.3,0.7-0.7V6.4c4,0.4,7.2,3.5,7.5,7.5h-0.9c-0.4,0-0.7,0.3-0.7,0.7c0,0.4,0.3,0.7,0.7,0.7
						H21c-0.1,0.7-0.3,1.5-0.5,2.1h3c0.3-0.9,0.4-1.9,0.4-2.9c0-6.2-5-11.2-11.2-11.2c-6.1,0-11.1,5-11.1,11.2s5,11.2,11.2,11.2h0.1
						v-4.5h-0.1C12.3,21.2,12,21.5,12,21.9z"/>
				</g>
			</g>
		</g>
		<g>
			<g>
				<g>
					<path d="M16.9,15.6c0.6,0,1.1-0.5,1.1-1.1c0-0.6-0.5-1.1-1.1-1.1h-2.6c-0.4-0.5-0.9-0.8-1.6-0.8l0,0l-2.4-3.2
						c-0.4-0.5-1-0.6-1.5-0.2c-0.6,0.3-0.6,1-0.3,1.5L11,14c-0.1,0.2-0.1,0.5-0.1,0.6c0,1,0.8,1.9,1.9,1.9c0.6,0,1.2-0.4,1.6-0.8
						L16.9,15.6L16.9,15.6z"/>
				</g>
			</g>
		</g>
	</g>
</g>
</svg>
