<?xml version="1.0" encoding="utf-8"?>
<!-- Generator: Adobe Illustrator 21.1.0, SVG Export Plug-In . SVG Version: 6.00 Build 0)  -->
<svg version="1.1" id="Capa_1" xmlns="http://www.w3.org/2000/svg" xmlns:xlink="http://www.w3.org/1999/xlink" x="0px" y="0px"
	 viewBox="0 0 35 35" style="enable-background:new 0 0 35 35;" xml:space="preserve">
<style type="text/css">
	.st0{fill:#010002;}
</style>
<g>
	<path class="st0" d="M18.8,17.7l-4.8-3.9l2.8-7.5C15.1,4.2,12.4,3,9.9,3C9.7,3,9.4,3,9.2,3c-3,0.3-5,1.3-6.3,3
		c-1.3,1.7-1.7,4-1.2,6.9c1.1,7,14.1,18.2,14.7,18.7c0.2,0.2,0.6,0.3,0.9,0.3c0.3,0,0.6-0.1,0.9-0.3c0.1-0.1,1.1-1,2.5-2.3L16.4,24
		L18.8,17.7z M32.2,6.1c-1.3-1.7-3.4-2.7-6.3-3c-0.2,0-0.5,0-0.7,0c-2.6,0-5.5,1.2-7.2,3.6c-0.1-0.1-1-0.1-1-0.2l-1.2,7.2l5,3.8
		l-2.5,6.2l2.8,5.4c4-3.9,11.6-11,12.4-16C33.9,10.1,33.4,7.8,32.2,6.1z"/>
</g>
</svg>
