<?xml version="1.0" encoding="utf-8"?>
<!-- Generator: Adobe Illustrator 21.1.0, SVG Export Plug-In . SVG Version: 6.00 Build 0)  -->
<svg version="1.1" id="Capa_1" xmlns="http://www.w3.org/2000/svg" xmlns:xlink="http://www.w3.org/1999/xlink" x="0px" y="0px"
	 viewBox="0 0 30 30" style="enable-background:new 0 0 30 30;" xml:space="preserve">
<g>
	<path d="M27.8,10.3c0.2,0.2,0.5,0.2,0.7,0l0.7-0.7c0.2-0.2,0.2-0.5,0-0.7l-1.7-1.7c-0.2-0.2-0.5-0.2-0.7,0l-0.7,0.7
		c-0.2,0.2-0.2,0.5,0,0.7l0,0.1l-0.5,0.5c-1.4-1.1-3.1-1.8-4.9-2V6.1h0.6c0.3,0,0.5-0.2,0.5-0.5V4c0-0.3-0.2-0.5-0.5-0.5h-3.5
		c-0.3,0-0.5,0.2-0.5,0.5v1.6c0,0.3,0.2,0.5,0.5,0.5h0.6v1c-1.8,0.2-3.5,1-4.9,2l-0.5-0.5h0c0.2-0.2,0.2-0.5,0-0.7L12.2,7
		c-0.2-0.2-0.5-0.2-0.7,0L9.7,8.7c-0.2,0.2-0.2,0.5,0,0.7l0.7,0.7c0.2,0.2,0.5,0.2,0.7,0l0.1-0.1l0.5,0.5c-1.3,1.6-2.1,3.7-2.1,6
		c0,5.4,4.4,9.7,9.7,9.7s9.7-4.4,9.7-9.7c0-2.2-0.7-4.4-2.1-6L27.8,10.3L27.8,10.3z M19.5,24.3c-4.2,0-7.5-3.3-7.5-7.5
		s3.3-7.5,7.5-7.5s7.5,3.3,7.5,7.5S23.6,24.3,19.5,24.3z"/>
	<path d="M4.5,19.4c-0.5,0-1,0.4-1,1c0,0.6,0.4,1.1,1,1.1h5.2c0.1,0,0.2,0,0.3,0c-0.2-0.6-0.4-1.3-0.6-1.9L4.5,19.4L4.5,19.4z"/>
	<path d="M10,12.3c-0.1,0-0.2,0-0.3,0H1.5c-0.5,0-1,0.4-1,1s0.4,1,1,1h7.9C9.6,13.6,9.7,13,10,12.3z"/>
	<path d="M9.2,16.8c0-0.3,0-0.6,0-1H2.9c-0.5,0-1,0.4-1,1c0,0.5,0.4,1,1,1h6.3C9.2,17.5,9.2,17.1,9.2,16.8z"/>
	<path d="M24.2,14c-0.2-0.3-0.5-0.3-0.7-0.2L20,15.4c-0.4-0.2-0.9-0.1-1.3,0.1c-0.7,0.4-1,1.3-0.5,2c0.4,0.7,1.3,1,2,0.5
		c0.4-0.2,0.6-0.6,0.7-1.1l3.1-2.1C24.3,14.7,24.4,14.4,24.2,14z M20.1,17c-0.1,0.3-0.4,0.5-0.7,0.4c-0.3-0.1-0.5-0.4-0.4-0.7
		c0.1-0.3,0.4-0.5,0.7-0.4C20,16.3,20.2,16.6,20.1,17z"/>
	<path d="M21.6,13.1c0.3,0.2,0.6,0.1,0.9-0.2s0.1-0.6-0.2-0.9c-0.3-0.2-0.6-0.1-0.9,0.2c-0.1,0.2-0.1,0.4,0,0.6
		C21.4,13,21.5,13.1,21.6,13.1z"/>
	<path d="M19.5,12.5c0.3,0,0.6-0.3,0.6-0.6c0-0.3-0.3-0.6-0.6-0.6c-0.3,0-0.6,0.3-0.6,0.6c0,0.1,0,0.2,0.1,0.3
		C19,12.4,19.3,12.5,19.5,12.5z"/>
	<path d="M19.6,21.1L19.6,21.1c-0.3,0-0.6,0.3-0.6,0.6c0,0.1,0,0.2,0.1,0.3c0.1,0.2,0.3,0.3,0.5,0.3c0.3,0,0.6-0.3,0.6-0.6
		C20.1,21.4,19.9,21.1,19.6,21.1z"/>
	<path d="M21.7,20.6c-0.3,0.2-0.4,0.5-0.2,0.9l0,0c0.2,0.3,0.5,0.4,0.9,0.2c0.3-0.2,0.4-0.5,0.2-0.9C22.4,20.5,21.9,20.4,21.7,20.6z
		"/>
	<path d="M24.1,18.8c-0.3-0.2-0.6-0.1-0.9,0.2c-0.1,0.2-0.1,0.4,0,0.6c0,0.1,0.1,0.2,0.2,0.2c0.3,0.2,0.6,0.1,0.9-0.2
		C24.5,19.3,24.4,18.9,24.1,18.8z"/>
	<path d="M15.2,16.9c0-0.3-0.3-0.6-0.6-0.6c-0.3,0-0.6,0.3-0.6,0.6c0,0.1,0,0.2,0.1,0.3c0.1,0.2,0.3,0.3,0.5,0.3
		C15,17.5,15.2,17.3,15.2,16.9z"/>
	<path d="M15,18.9c-0.3,0.2-0.4,0.5-0.2,0.9l0,0c0.2,0.3,0.5,0.4,0.9,0.2c0.3-0.2,0.4-0.5,0.2-0.9C15.6,18.8,15.3,18.6,15,18.9z"/>
	<path d="M23.8,16.8c0,0.1,0,0.2,0.1,0.3c0.1,0.2,0.3,0.3,0.5,0.3c0.3,0,0.6-0.3,0.6-0.6c0-0.3-0.3-0.6-0.6-0.6
		C24.1,16.2,23.8,16.5,23.8,16.8z"/>
	<path d="M15,15c0.3,0.2,0.6,0.1,0.9-0.2l0,0c0.2-0.3,0.1-0.6-0.2-0.9c-0.3-0.2-0.6-0.1-0.9,0.2c-0.1,0.2-0.1,0.4,0,0.6
		C14.8,14.8,14.9,14.9,15,15z"/>
	<path d="M17.3,13.2L17.3,13.2L17.3,13.2L17.3,13.2c0.3-0.2,0.4-0.5,0.2-0.9s-0.5-0.4-0.9-0.2l0,0l0,0c-0.3,0.2-0.4,0.5-0.2,0.9l0,0
		C16.7,13.2,17,13.3,17.3,13.2z"/>
	<path d="M17.4,20.6c-0.3-0.2-0.6-0.1-0.9,0.2c-0.1,0.2-0.1,0.4,0,0.6c0,0.1,0.1,0.2,0.2,0.2c0.3,0.2,0.6,0.1,0.9-0.2
		C17.8,21.1,17.7,20.8,17.4,20.6z"/>
</g>
</svg>
