<?xml version="1.0" encoding="utf-8"?>
<!-- Generator: Adobe Illustrator 21.1.0, SVG Export Plug-In . SVG Version: 6.00 Build 0)  -->
<svg version="1.1" id="圖層_1" xmlns="http://www.w3.org/2000/svg" xmlns:xlink="http://www.w3.org/1999/xlink" x="0px" y="0px"
	 viewBox="0 0 736 194.1" style="enable-background:new 0 0 736 194.1;" xml:space="preserve">
<style type="text/css">
	.st0{fill:#ED9027;}
	.st1{fill:#2EA355;}
</style>
<g>
	<polygon class="st0" points="595.8,188 595.8,69.4 621.9,69.4 621.9,187.5 621.9,188 	"/>
	<polygon class="st0" points="494.9,185.1 494.9,73.3 521,73.3 521,184.6 521,185.1 	"/>
	<path class="st0" d="M675.3,190V32.3c0-8.7,7.8-15.8,17.4-15.8h3.7c2.8,0,5,2,5,4.6v168.2v0.7H675.3z"/>
	<g>
		<polygon class="st1" points="495.3,75.6 495.3,22.4 521,22.4 521,75.4 521,75.6 		"/>
		<path class="st1" d="M686.1,3.1c5.6,8.8,11.3,17.6,17.2,26.4c1.3,1.9,2.5,3.8,3.6,5.7L736,0l-50.6,1.6
			C685.7,2.1,685.9,2.6,686.1,3.1z"/>
		<polygon class="st1" points="616.4,77.8 596,90.5 561.8,49.8 582.3,37.1 		"/>
		<polygon class="st1" points="507.6,59.9 569.1,21.6 582.2,37.2 520.6,75.4 		"/>
		<polygon class="st1" points="713.9,19.5 608.6,82.6 593.8,64.3 699.1,1.3 		"/>
	</g>
	<path class="st0" d="M132.6,145.2c6,0,11,0.1,14.9,0.1c3.9,0,8.9,0.1,14.9,0.1c-4.4,15.1-13.5,27.1-27.4,35.8
		c-13.9,8.7-31,13-51.4,12.9c-25.8-0.1-46.2-8.5-61.3-25.2c-15-16.6-22.4-39-22.3-67.1c0.2-27.9,7.9-50.2,23.2-66.9
		C38.5,18.2,59,9.9,84.6,10.1c25.1,0.1,44.9,8.3,59.2,24.3c14.3,16.1,21.4,37.9,21.2,65.5l-0.1,10.9l-134-0.8l0,1.3
		c0.7,17.6,5.8,31.6,15.4,42c9.6,10.4,22.2,15.6,38,15.7c12,0.1,22-1.9,30.1-6C122.6,158.9,128.6,153,132.6,145.2z M47.3,49.3
		C37.7,58.8,32.3,71.4,31,87.1l102.7,0.6c-0.3-15.7-4.9-28.4-14-38c-9.1-9.6-21-14.5-35.7-14.5C69.2,35,57,39.7,47.3,49.3z"/>
	<path class="st0" d="M318,70c-5.5,0-10,0-13.6,0c-3.5,0-8.1,0-13.6,0c-2.2-8.4-6.9-15.6-14.3-21.6s-17-9-29.1-9
		c-15.1,0-27.1,5.7-36,17c-8.9,11.4-13.3,26.7-13.3,45.9c0,19.7,4.5,35.3,13.4,46.8c8.9,11.6,20.9,17.3,35.9,17.3
		c11.3,0,20.8-2.6,28.3-7.7c7.5-5.2,12.6-12.5,15.1-22.1H318c-2.4,15.6-9.7,28.5-21.8,38.8C284,185.8,267.8,191,247.7,191
		c-23.5,0-42.2-8-56.2-24.1c-14-16-21-37.6-21-64.6c0-26.5,7-47.7,20.9-63.6C205.3,22.9,224,15,247.5,15c20.5,0,36.8,5.4,48.9,16.2
		C308.5,41.9,315.7,54.9,318,70z"/>
	<path class="st0" d="M343,164.8c-15.1-15.4-22.7-36.6-22.7-63.3c0-26.9,7.6-48,22.7-63.4C358.1,22.7,378.7,15,404.7,15
		c26,0,46.6,7.7,61.7,23.1c15.1,15.4,22.7,36.5,22.7,63.4c0,26.8-7.6,47.9-22.7,63.3c-15.1,15.5-35.7,23.2-61.7,23.2
		C378.7,188,358.1,180.3,343,164.8z M444.7,147.5c9.4-11,14.1-26.3,14.1-46c0-19.8-4.7-35.2-14.1-46.1C435.3,44.5,422,39,404.7,39
		c-17.3,0-30.7,5.5-40,16.4c-9.4,10.9-14.1,26.3-14.1,46.1c0,19.7,4.7,35.1,14.1,46c9.4,11,22.7,16.4,40,16.4
		C422,164,435.3,158.5,444.7,147.5z"/>
</g>
</svg>
