<?xml version="1.0" encoding="utf-8"?>
<!-- Generator: Adobe Illustrator 21.1.0, SVG Export Plug-In . SVG Version: 6.00 Build 0)  -->
<svg version="1.1" id="Capa_1" xmlns="http://www.w3.org/2000/svg" xmlns:xlink="http://www.w3.org/1999/xlink" x="0px" y="0px"
	 viewBox="0 0 35 35" style="enable-background:new 0 0 35 35;" xml:space="preserve">
<path d="M4.2,28.6h3.4c0.7,0,1.2-0.5,1.2-1.2V12.7c0-0.7-0.5-1.2-1.2-1.2H4.2C3.5,11.5,3,12,3,12.7v14.7C3,28.1,3.5,28.6,4.2,28.6z"
	/>
<path d="M11.9,28.6h3.4c0.7,0,1.2-0.5,1.2-1.2V3.3C16.5,2.6,16,2,15.3,2h-3.4c-0.7,0-1.2,0.5-1.2,1.2v24.1
	C10.7,28.1,11.3,28.6,11.9,28.6z"/>
<path d="M19.7,28.6h3.4c0.7,0,1.2-0.5,1.2-1.2V8.6c0-0.7-0.5-1.2-1.2-1.2h-3.4c-0.7,0-1.2,0.5-1.2,1.2v18.8
	C18.5,28.1,19,28.6,19.7,28.6z"/>
<path d="M27.5,28.6h3.4c0.7,0,1.2-0.5,1.2-1.2V17.3c0-0.7-0.5-1.2-1.2-1.2h-3.4c-0.7,0-1.2,0.5-1.2,1.2v10.1
	C26.3,28.1,26.8,28.6,27.5,28.6z"/>
<path d="M33,30.1H2c-0.8,0-1.4,0.6-1.4,1.4C0.6,32.3,1.2,33,2,33H33c0.8,0,1.4-0.6,1.4-1.4C34.4,30.7,33.8,30.1,33,30.1z"/>
</svg>
