<?xml version="1.0" encoding="iso-8859-1"?>
<!-- Generator: Adobe Illustrator 16.0.0, SVG Export Plug-In . SVG Version: 6.00 Build 0)  -->
<!DOCTYPE svg PUBLIC "-//W3C//DTD SVG 1.1//EN" "http://www.w3.org/Graphics/SVG/1.1/DTD/svg11.dtd">
<svg version="1.1" id="Capa_1" xmlns="http://www.w3.org/2000/svg" xmlns:xlink="http://www.w3.org/1999/xlink" x="0px" y="0px"
	 width="488.699px" height="488.699px" viewBox="0 0 488.699 488.699" style="enable-background:new 0 0 488.699 488.699;"
	 xml:space="preserve">
<g>
	<g>
		<g>
			<path d="M52.232,385.721h49.127c9.625,0,17.428-7.798,17.428-17.423V193.707c0-9.625-7.802-17.421-17.428-17.421H52.232
				c-9.625,0-17.428,7.796-17.428,17.421v174.591C34.804,377.923,42.607,385.721,52.232,385.721z"/>
			<path d="M163.945,385.721h49.125c9.612,0,17.413-7.798,17.413-17.423V57.564c0-9.625-7.801-17.418-17.413-17.418h-49.125
				c-9.643,0-17.427,7.792-17.427,17.418v310.734C146.518,377.923,154.302,385.721,163.945,385.721z"/>
			<path d="M275.628,385.721h49.142c9.607,0,17.41-7.802,17.41-17.413V134.345c0-9.613-7.801-17.414-17.41-17.414h-49.142
				c-9.612,0-17.413,7.801-17.413,17.414v233.963C258.215,377.919,266.016,385.721,275.628,385.721z M279.164,137.881h42.082v226.89
				h-42.082V137.881z"/>
			<path d="M389.086,385.721h49.125c9.625,0,17.41-7.798,17.41-17.423V260.02c0-9.625-7.785-17.419-17.41-17.419h-49.125
				c-9.625,0-17.414,7.794-17.414,17.419v108.278C371.672,377.923,379.461,385.721,389.086,385.721z"/>
			<path d="M467.752,406.667H20.945C9.368,406.667,0,416.036,0,427.604c0,11.577,9.369,20.949,20.945,20.949h446.809
				c11.576,0,20.945-9.373,20.945-20.949C488.699,416.038,479.328,406.667,467.752,406.667z"/>
		</g>
	</g>
</g>
<g>
</g>
<g>
</g>
<g>
</g>
<g>
</g>
<g>
</g>
<g>
</g>
<g>
</g>
<g>
</g>
<g>
</g>
<g>
</g>
<g>
</g>
<g>
</g>
<g>
</g>
<g>
</g>
<g>
</g>
</svg>
