<?xml version="1.0" encoding="utf-8"?>
<!-- Generator: Adobe Illustrator 21.1.0, SVG Export Plug-In . SVG Version: 6.00 Build 0)  -->
<svg version="1.1" id="Capa_1" xmlns="http://www.w3.org/2000/svg" xmlns:xlink="http://www.w3.org/1999/xlink" x="0px" y="0px"
	 viewBox="0 0 30 30" style="enable-background:new 0 0 30 30;" xml:space="preserve">
<g>
	<g id="check-circle-outline">
		<path d="M10.6,12.9L9,14.5l4.9,4.9L24.7,8.5L23.2,7l-9.3,9.4L10.6,12.9z M23.7,15c0,4.8-3.9,8.7-8.7,8.7S6.4,19.8,6.4,15
			s3.8-8.6,8.6-8.6c0.9,0,1.6,0.1,2.4,0.3L19.1,5c-1.3-0.4-2.7-0.7-4.1-0.7C9,4.2,4.1,9,4.1,15S9,25.9,15,25.9S25.9,21,25.9,15H23.7
			z"/>
	</g>
</g>
</svg>
